<svg width="339" height="371" viewBox="0 0 339 371" fill="none" xmlns="http://www.w3.org/2000/svg">
<path d="M81.7326 182.094H62.0538L48.9346 75.8289H96.5573L98.6563 92.8839H70.7125L74.3858 122.402H100.493L102.592 139.457H76.4849L81.7326 182.094Z" fill="white"/>
<path d="M175.404 75.6977L183.8 144.442C185.374 157.037 183.669 166.745 178.815 173.436C173.961 180.127 166.089 183.406 155.2 183.406C144.574 183.406 136.177 180.127 129.88 173.436C123.583 166.876 119.516 157.037 117.942 144.049L109.545 75.5665H129.224L137.752 145.492C139.457 159.005 144.705 165.827 153.757 165.827C157.955 165.827 160.973 164.121 162.809 160.71C164.646 157.299 165.171 152.314 164.384 146.017L155.725 75.5665H175.404V75.6977Z" fill="white"/>
<path d="M258.055 182.094H200.593L198.887 168.319L223.551 93.0151H190.622L188.523 75.8289H243.886L245.591 89.6041L220.927 164.777H255.956L258.055 182.094Z" fill="white"/>
<path d="M193.771 305.415L184.325 278.52H156.643L153.888 305.415H134.078L147.329 198.625H174.223L213.712 305.415H193.771ZM178.421 261.072L169.762 236.408C169.238 234.965 168.057 231.16 166.089 225.125C164.121 219.091 162.94 215.024 162.416 213.056C162.284 217.254 162.022 221.846 161.76 226.831C161.366 231.816 160.317 243.361 158.48 261.203H178.421V261.072Z" fill="#FFCB70"/>
<path d="M266.451 231.816C267.894 243.099 266.057 251.757 261.072 257.792C256.087 263.827 248.215 266.844 237.457 266.844H232.472L237.195 305.415H217.385L204.266 199.149H231.291C252.151 199.018 263.827 209.907 266.451 231.816ZM230.504 249.658H234.309C239.163 249.658 242.574 248.346 244.673 245.722C246.772 243.099 247.428 238.638 246.641 232.603C245.985 227.093 244.411 222.895 241.787 220.14C239.294 217.385 235.752 216.073 231.16 216.073H226.306L230.504 249.658Z" fill="#FFCB70"/>
<path d="M333.49 230.635C334.933 241.918 333.096 250.577 328.111 256.611C323.126 262.646 315.254 265.664 304.497 265.664H299.511L304.234 304.234H284.555L271.436 197.969H298.462C319.19 197.969 330.866 208.857 333.49 230.635ZM297.543 248.609H301.348C306.202 248.609 309.613 247.297 311.712 244.673C313.811 242.049 314.467 237.589 313.68 231.554C313.024 226.044 311.45 221.846 308.826 219.09C306.333 216.335 302.791 215.024 298.199 215.024H293.345L297.543 248.609Z" fill="#FFCB70"/>
<path d="M328.636 180.914H271.174L269.468 167.139L294.132 91.8344H261.203L259.104 74.6483H314.467L316.173 88.4234L291.508 163.596H326.537L328.636 180.914Z" fill="white"/>
<path d="M131.454 305.677H73.9923L72.2868 291.902L96.9509 216.598H64.0217L61.9226 199.412H117.286L118.991 213.187L94.327 288.36H129.355L131.454 305.677Z" fill="white"/>
<path d="M93.8022 29.7806H87.505C87.7674 32.142 87.6362 34.3723 86.9803 36.4714C86.0619 39.4888 84.2253 42.1126 81.7326 44.0805C79.24 45.9172 76.0914 46.9667 72.5492 46.9667C70.1877 46.9667 67.8262 46.4419 65.7272 45.6548C62.4474 44.3429 59.5612 42.1126 57.4621 39.4888C55.2318 36.7337 53.7887 33.4539 53.3951 29.9118C53.1327 27.5503 53.2639 25.32 53.9199 23.221C54.8382 20.2036 56.6749 17.5797 59.1676 15.6118C61.6602 13.7752 64.8088 12.7256 68.351 12.7256C70.7125 12.7256 73.0739 13.2504 75.173 14.0375C78.4528 15.3495 81.339 17.5797 83.4381 20.2036C85.6684 22.9586 87.1114 26.2384 87.505 29.7806H93.8022H100.099C99.5747 25.7136 98.2628 21.7779 96.2949 18.2357C93.4087 12.8568 89.0793 8.39629 83.9628 5.11649C78.8463 1.96788 72.8115 0 66.7767 0C62.7097 0 58.9052 0.787156 55.4942 2.36146C50.3777 4.59172 46.3108 8.39628 43.6869 13.1192C41.0631 17.8421 39.8823 23.6146 40.6695 29.7806C41.1942 33.8475 42.5062 37.7833 44.4741 41.3255C47.3603 46.7043 51.6897 51.1649 56.8061 54.4447C61.9226 57.5933 67.9574 59.5611 73.9923 59.5611C78.0592 59.5611 81.8637 58.774 85.2747 57.1997C90.3912 54.9694 94.4582 51.1649 97.082 46.4419C99.7058 41.719 100.887 35.9466 100.099 29.7806H93.8022V29.7806Z" fill="white"/>
<path d="M198.231 29.7806H191.934C192.196 32.142 192.065 34.3723 191.409 36.4714C190.491 39.4888 188.654 42.1126 186.161 44.0805C183.669 45.9172 180.52 46.9667 176.978 46.9667C174.616 46.9667 172.255 46.4419 170.156 45.6548C166.876 44.3429 163.99 42.1126 161.891 39.4888C159.661 36.7337 158.218 33.4539 157.824 29.9118C157.562 27.5503 157.693 25.32 158.349 23.221C159.267 20.2036 161.104 17.5797 163.596 15.6118C166.089 13.7752 169.238 12.7256 172.78 12.7256C175.141 12.7256 177.503 13.2504 179.602 14.0375C182.882 15.3495 185.768 17.5797 187.867 20.2036C190.097 22.9586 191.54 26.2384 191.934 29.7806H198.231H204.528C204.003 25.7136 202.692 21.7779 200.724 18.2357C197.837 12.8568 193.508 8.39629 188.392 5.11649C183.275 1.96788 177.24 0 171.205 0C167.139 0 163.334 0.787156 159.923 2.36146C154.806 4.59172 150.74 8.39628 148.116 13.1192C145.492 17.8421 144.311 23.6146 145.098 29.7806C145.623 33.8475 146.935 37.7833 148.903 41.3255C151.789 46.7043 156.118 51.1649 161.235 54.4447C166.351 57.5933 172.386 59.5611 178.421 59.5611C182.488 59.5611 186.293 58.774 189.704 57.1997C194.82 54.9694 198.887 51.1649 201.511 46.4419C204.135 41.719 205.315 35.9466 204.528 29.7806H198.231V29.7806Z" fill="white"/>
<path d="M304.103 29.7806H297.806C298.068 32.142 297.937 34.3723 297.281 36.4714C296.363 39.4888 294.526 42.1126 292.033 44.0805C289.541 45.9172 286.392 46.9667 282.85 46.9667C280.488 46.9667 278.127 46.4419 276.028 45.6548C272.748 44.3429 269.862 42.1126 267.763 39.4888C265.533 36.7337 264.089 33.4539 263.696 29.9118C263.433 27.5503 263.565 25.32 264.221 23.221C265.139 20.2036 266.976 17.5797 269.468 15.6118C271.961 13.7752 275.11 12.7256 278.652 12.7256C281.013 12.7256 283.375 13.2504 285.474 14.0375C288.753 15.3495 291.64 17.5797 293.739 20.2036C295.969 22.9586 297.412 26.2384 297.806 29.7806H304.103H310.4C309.875 25.7136 308.563 21.7779 306.596 18.2357C303.709 12.8568 299.38 8.39629 294.264 5.11649C289.147 1.96788 283.112 0 277.077 0C273.01 0 269.206 0.787156 265.795 2.36146C260.678 4.59172 256.611 8.39628 253.988 13.1192C251.364 17.8421 250.183 23.6146 250.97 29.7806C251.495 33.8475 252.807 37.7833 254.775 41.3255C257.661 46.7043 261.99 51.1649 267.107 54.4447C272.223 57.5933 278.258 59.5611 284.293 59.5611C288.36 59.5611 292.164 58.774 295.575 57.1997C300.692 54.9694 304.759 51.1649 307.383 46.4419C310.007 41.719 311.187 35.9466 310.4 29.7806H304.103V29.7806Z" fill="white"/>
<path d="M15.8743 8.00269L58.3804 332.047L339 314.598L313.811 354.087L38.7016 370.617L0 60.873L15.8743 8.00269Z" fill="white"/>
</svg>
