<svg width="321" height="351" viewBox="0 0 321 351" fill="none" xmlns="http://www.w3.org/2000/svg">
<path d="M75.6 168.5H57.5L45.4 70.1H89.5L91.4 85.9H65.5L68.9 113.2H93.1L95 129H70.8L75.6 168.5Z" fill="black"/>
<path d="M162.3 70.1L170.1 133.8C171.5 145.5 170 154.5 165.5 160.6C161 166.8 153.7 169.9 143.7 169.9C133.9 169.9 126.1 166.8 120.2 160.7C114.3 154.6 110.7 145.5 109.2 133.5L101.4 70.1H119.6L127.6 134.9C129.1 147.4 134.1 153.7 142.4 153.7C146.3 153.7 149 152.1 150.8 148.9C152.6 145.7 153 141.2 152.3 135.3L144.3 70.1H162.3V70.1Z" fill="black"/>
<path d="M238.8 168.5H185.6L184 155.7L206.9 86H176.4L174.4 70H225.7L227.3 82.8L204.4 152.4H236.8L238.8 168.5Z" fill="black"/>
<path d="M179.3 282.6L170.6 257.8H145L142.4 282.6H124.1L136.3 183.8H161.1L197.7 282.6H179.3V282.6ZM165.1 241.6L157 218.7C156.5 217.3 155.4 213.8 153.6 208.2C151.8 202.6 150.7 198.9 150.2 197C150.1 200.9 149.9 205.1 149.5 209.8C149.1 214.5 148.1 225 146.4 241.6H165.1V241.6Z" fill="#FFCB70"/>
<path d="M251.6 214.5C252.9 225 251.2 233 246.6 238.6C242 244.2 234.7 247 224.8 247H220.2L224.6 282.7H206.3L194.2 184.3H219.2C238.3 184.2 249.1 194.3 251.6 214.5ZM218.3 231.1H221.8C226.3 231.1 229.5 229.9 231.4 227.4C233.3 224.9 233.9 220.9 233.2 215.3C232.6 210.1 231.1 206.3 228.8 203.8C226.5 201.3 223.2 200.1 219 200.1H214.6L218.3 231.1Z" fill="#FFCB70"/>
<path d="M317.6 214.5C318.9 225 317.2 233 312.6 238.6C308 244.2 300.7 247 290.8 247H286.2L290.6 282.7H272.3L260.2 184.3H285.2C304.4 184.2 315.1 194.3 317.6 214.5ZM284.3 231.1H287.8C292.3 231.1 295.5 229.9 297.4 227.4C299.3 224.9 299.9 220.9 299.2 215.3C298.6 210.1 297.1 206.3 294.8 203.8C292.5 201.3 289.2 200.1 285 200.1H280.6L284.3 231.1Z" fill="#FFCB70"/>
<path d="M101.4 70.1L97.7 91.5L104.7 145.5" fill="#91D5DD"/>
<path d="M45.4 70.1L39.5 85.6L57.5 168.5L52.8 175.7" fill="#91D5DD"/>
<path d="M174.4 70.1L169 84.5L171.1 98.5L176.4 86.1" fill="#91D5DD"/>
<path d="M193.2 100.7L175.4 152.5L173.8 156.8L184 155.7L203 97.5L193.2 100.7Z" fill="#91D5DD"/>
<path d="M304.1 167.4H250.9L249.3 154.6L272.2 84.9H241.7L239.7 68.9H291L292.6 81.7L269.7 151.3H302.1L304.1 167.4Z" fill="black"/>
<path d="M239.7 69L234.3 83.4L236.4 97.5L241.7 85" fill="#91D5DD"/>
<path d="M258.6 99.6L240.7 151.4L239.1 155.7L249.3 154.6L268.3 96.4L258.6 99.6Z" fill="#91D5DD"/>
<path d="M121.7 282.9H68.5L66.9 270.1L89.8 200.4H59.3L57.3 184.4H108.6L110.2 197.2L87.3 266.8H119.7L121.7 282.9Z" fill="black"/>
<path d="M57.3 184.5L51.8 198.9L54 213L59.3 200.5" fill="#91D5DD"/>
<path d="M76.1 215.1L58.3 266.9L56.7 271.2L66.9 270.1L85.8 211.9L76.1 215.1Z" fill="#91D5DD"/>
<path d="M80.2 29.7H74.4C74.7 31.9 74.5 34 73.9 35.9C73 38.7 71.3 41.2 69 42.9C66.7 44.6 63.8 45.6 60.5 45.6C58.3 45.6 56.2 45.2 54.2 44.4C51.2 43.2 48.5 41.2 46.5 38.6C44.5 36.1 43.1 33 42.7 29.7C42.4 27.5 42.6 25.4 43.2 23.5C44.1 20.7 45.8 18.2 48.1 16.5C50.4 14.8 53.3 13.8 56.6 13.8C58.8 13.8 60.9 14.2 62.9 15C65.9 16.2 68.6 18.2 70.6 20.8C72.6 23.3 74 26.4 74.4 29.7H80.2H86C85.5 25.9 84.3 22.3 82.5 19C79.8 14.1 75.8 9.89999 71.1 6.89999C66.4 3.89999 60.8 2.20001 55.1 2.20001C51.3 2.20001 47.8 2.99999 44.7 4.39999C40 6.49999 36.3 9.99999 33.8 14.4C31.4 18.8 30.3 24.1 31 29.8C31.5 33.6 32.7 37.2 34.5 40.5C37.2 45.4 41.2 49.6 45.9 52.6C50.6 55.6 56.2 57.3 61.9 57.3C65.7 57.3 69.2 56.5 72.3 55.1C77 53 80.7 49.5 83.2 45.1C85.6 40.7 86.7 35.4 86 29.7H80.2Z" fill="#91D5DD"/>
<path d="M176.9 29.7H171.1C171.4 31.9 171.2 34 170.6 35.9C169.7 38.7 168 41.2 165.7 42.9C163.4 44.6 160.5 45.6 157.2 45.6C155 45.6 152.9 45.2 150.9 44.4C147.9 43.2 145.2 41.2 143.2 38.6C141.2 36.1 139.8 33 139.4 29.7C139.1 27.5 139.3 25.4 139.9 23.5C140.8 20.7 142.5 18.2 144.8 16.5C147.1 14.8 150 13.8 153.3 13.8C155.5 13.8 157.6 14.2 159.6 15C162.6 16.2 165.3 18.2 167.3 20.8C169.3 23.3 170.7 26.4 171.1 29.7H176.9H182.7C182.2 25.9 181 22.3 179.2 19C176.5 14.1 172.5 9.89999 167.8 6.89999C163.1 3.89999 157.5 2.20001 151.8 2.20001C148 2.20001 144.5 2.99999 141.4 4.39999C136.7 6.49999 133 9.99999 130.5 14.4C128.1 18.8 127 24.1 127.7 29.8C128.2 33.6 129.4 37.2 131.2 40.5C133.9 45.4 137.9 49.6 142.6 52.6C147.3 55.6 152.9 57.3 158.6 57.3C162.4 57.3 165.9 56.5 169 55.1C173.7 53 177.4 49.5 179.9 45.1C182.3 40.7 183.4 35.4 182.7 29.7H176.9Z" fill="#91D5DD"/>
<path d="M274.9 29.7H269.1C269.4 31.9 269.2 34 268.6 35.9C267.7 38.7 266 41.2 263.7 42.9C261.4 44.6 258.5 45.6 255.2 45.6C253 45.6 250.9 45.2 248.9 44.4C245.9 43.2 243.2 41.2 241.2 38.6C239.2 36.1 237.8 33 237.4 29.7C237.1 27.5 237.3 25.4 237.9 23.5C238.8 20.7 240.5 18.2 242.8 16.5C245.1 14.8 248 13.8 251.3 13.8C253.5 13.8 255.6 14.2 257.6 15C260.6 16.2 263.3 18.2 265.3 20.8C267.3 23.3 268.7 26.4 269.1 29.7H274.9H280.7C280.2 25.9 279 22.3 277.2 19C274.5 14.1 270.5 9.89999 265.8 6.89999C261.1 3.89999 255.5 2.20001 249.8 2.20001C246 2.20001 242.5 2.99999 239.4 4.39999C234.7 6.49999 231 9.99999 228.5 14.4C226.1 18.8 225 24.1 225.7 29.8C226.2 33.6 227.4 37.2 229.2 40.5C231.9 45.4 235.9 49.6 240.6 52.6C245.3 55.6 250.9 57.3 256.6 57.3C260.4 57.3 263.9 56.5 267 55.1C271.7 53 275.4 49.5 277.9 45.1C280.3 40.7 281.4 35.4 280.7 29.7H274.9Z" fill="#91D5DD"/>
<path d="M86.8 27.5H81C81.3 29.7 81.1 31.8 80.5 33.7C79.6 36.5 77.9 39 75.6 40.7C73.3 42.4 70.4 43.4 67.1 43.4C64.9 43.4 62.8 43 60.8 42.2C57.8 41 55.1 39 53.1 36.4C51.1 33.9 49.7 30.8 49.3 27.5C49 25.3 49.2 23.2 49.8 21.3C50.7 18.5 52.4 16 54.7 14.3C57 12.6 59.9 11.6 63.2 11.6C65.4 11.6 67.5 12 69.5 12.8C72.5 14 75.2 16 77.2 18.6C79.2 21.1 80.6 24.2 81 27.5H86.8H92.6C92.1 23.7 90.9 20.1 89.1 16.8C86.4 11.9 82.4 7.70001 77.7 4.70001C73 1.70001 67.4 0 61.7 0C57.9 0 54.4 0.800012 51.3 2.20001C46.6 4.30001 42.9 7.80001 40.4 12.2C38 16.6 36.9 21.9 37.6 27.6C38.1 31.4 39.3 35 41.1 38.3C43.8 43.2 47.8 47.4 52.5 50.4C57.2 53.4 62.8 55.1 68.5 55.1C72.3 55.1 75.8 54.3 78.9 52.9C83.6 50.8 87.3 47.3 89.8 42.9C92.2 38.5 93.3 33.2 92.6 27.5H86.8Z" fill="black"/>
<path d="M183.4 27.5H177.6C177.9 29.7 177.7 31.8 177.1 33.7C176.2 36.5 174.5 39 172.2 40.7C169.9 42.4 167 43.4 163.7 43.4C161.5 43.4 159.4 43 157.4 42.2C154.4 41 151.7 39 149.7 36.4C147.7 33.9 146.3 30.8 145.9 27.5C145.6 25.3 145.8 23.2 146.4 21.3C147.3 18.5 149 16 151.3 14.3C153.6 12.6 156.5 11.6 159.8 11.6C162 11.6 164.1 12 166.1 12.8C169.1 14 171.8 16 173.8 18.6C175.8 21.1 177.2 24.2 177.6 27.5H183.4H189.2C188.7 23.7 187.5 20.1 185.7 16.8C183 11.9 179 7.70001 174.3 4.70001C169.6 1.70001 164 0 158.3 0C154.5 0 151 0.800012 147.9 2.20001C143.2 4.30001 139.5 7.80001 137 12.2C134.6 16.6 133.5 21.9 134.2 27.6C134.7 31.4 135.9 35 137.7 38.3C140.4 43.2 144.4 47.4 149.1 50.4C153.8 53.4 159.4 55.1 165.1 55.1C168.9 55.1 172.4 54.3 175.5 52.9C180.2 50.8 183.9 47.3 186.4 42.9C188.8 38.5 189.9 33.2 189.2 27.5H183.4Z" fill="black"/>
<path d="M281.4 27.5H275.6C275.9 29.7 275.7 31.8 275.1 33.7C274.2 36.5 272.5 39 270.2 40.7C267.9 42.4 265 43.4 261.7 43.4C259.5 43.4 257.4 43 255.4 42.2C252.4 41 249.7 39 247.7 36.4C245.7 33.9 244.3 30.8 243.9 27.5C243.6 25.3 243.8 23.2 244.4 21.3C245.3 18.5 247 16 249.3 14.3C251.6 12.6 254.5 11.6 257.8 11.6C260 11.6 262.1 12 264.1 12.8C267.1 14 269.8 16 271.8 18.6C273.8 21.1 275.2 24.2 275.6 27.5H281.4H287.2C286.7 23.7 285.5 20.1 283.7 16.8C281 11.9 277 7.70001 272.3 4.70001C267.6 1.70001 262 0 256.3 0C252.5 0 249 0.800012 245.9 2.20001C241.2 4.30001 237.5 7.80001 235 12.2C232.6 16.6 231.5 21.9 232.2 27.6C232.7 31.4 233.9 35 235.7 38.3C238.4 43.2 242.4 47.4 247.1 50.4C251.8 53.4 257.4 55.1 263.1 55.1C266.9 55.1 270.4 54.3 273.5 52.9C278.2 50.8 281.9 47.3 284.4 42.9C286.8 38.5 287.9 33.2 287.2 27.5H281.4Z" fill="black"/>
<path d="M14.9 7.40002L55.2 313.8L320.6 297.4L296.7 334.7L36.5 350.4L0 57.3L14.9 7.40002Z" fill="#91D5DD"/>
<path d="M144.1 70.1L140 88.1L145.3 135.3C145.3 135.3 149.1 155.8 132.7 149.4C132.7 149.4 133.9 150.9 135.8 152C137.6 153.1 139.6 153.5 141.2 153.6C142.8 153.7 145.5 153.6 147.3 152.5C149.1 151.4 149.3 150.9 150 150.1C150.7 149.3 151.7 147 151.9 145.8L152.2 144.6C152.2 144.6 152.7 141.7 152.5 138.6C152.3 135.5 151.3 128.1 151.3 128.1L144.1 70.1Z" fill="#91D5DD"/>
</svg>
