<svg width="387" height="602" viewBox="0 0 387 602" fill="none" xmlns="http://www.w3.org/2000/svg">
<g id="peace">
<g id="Group">
<g id="hand-group">
<g id="hand">
<path id="Vector" d="M159.01 483.69C159.37 485.8 159.27 488.19 158.87 490.4C158.58 491.48 158.38 492.62 157.96 493.67C157.77 494.2 157.59 494.75 157.38 495.27L156.68 496.82C154.77 500.95 152 504.63 148.83 507.9C145.65 511.18 142.01 514 138.07 516.4C134.12 518.77 129.87 520.76 125.37 522.17C120.88 523.59 116.14 524.48 111.35 524.55C106.56 524.68 101.75 524.04 97.11 522.83C92.48 521.57 88.11 519.65 83.9 517.5L80.84 515.73C80.33 515.43 79.81 515.15 79.32 514.83L77.86 513.85L74.95 511.88L72.19 509.74C70.31 508.36 68.64 506.76 66.89 505.24L66.24 504.66L66.08 504.52L65.89 504.34L65.82 504.27L65.53 503.98L64.38 502.82L62.07 500.5L59.7 497.85C58.92 496.96 58.09 496.08 57.4 495.15L55.25 492.4C54.52 491.5 53.9 490.49 53.23 489.54C51.86 487.65 50.71 485.59 49.5 483.58C48.92 482.56 48.42 481.49 47.88 480.44C47.62 479.91 47.34 479.39 47.1 478.86L46.4 477.23C45.42 475.08 44.67 472.83 43.89 470.6L42.93 467.18C42.59 466.05 42.4 464.87 42.14 463.72C41.19 459.08 40.75 454.35 40.8 449.64C40.85 444.93 41.38 440.25 42.34 435.68C43.3 431.11 44.65 426.65 46.37 422.35C47.24 420.2 48.19 418.08 49.24 416.01C49.77 414.97 50.32 413.94 50.9 412.92C51.19 412.41 51.49 411.9 51.8 411.39C52.12 410.86 52.41 410.41 52.84 409.77L53 409.54L53.18 409.34C55.83 406.34 58.2 403.24 60.15 399.91C62.1 396.58 63.69 393.01 64.94 389.19C66.22 385.38 67.26 381.42 68.19 377.37C69.14 373.34 69.98 369.23 70.82 365.11C72.48 356.87 73.97 348.55 75.57 340.25L76.77 334.02L77.37 330.9L77.82 327.91L78.05 326.34C78.12 325.83 78.13 325.38 78.17 324.89L78.39 322.03C78.43 321.06 78.41 320.06 78.43 319.07V317.59C78.43 317.1 78.38 316.6 78.35 316.11L78.14 313.15L77.74 310.2L77.54 308.73L77.25 307.26C77.05 306.28 76.87 305.31 76.65 304.33C76.1 302.4 75.69 300.45 75.02 298.54L74.09 295.67L73.03 292.83C70.16 285.26 66.39 277.9 62.46 270.56L50.32 248.42C46.27 240.96 42.36 233.35 38.68 225.59C34.97 217.85 31.57 209.92 28.48 201.86C25.36 193.81 22.63 185.59 20.27 177.27C17.92 168.95 15.85 160.54 14.24 152.05L13.61 148.87L13.07 145.62C12.73 143.52 12.37 141.48 12.06 139.34L11.22 132.75C10.91 130.55 10.8 128.38 10.59 126.2C9.87997 117.47 9.69997 108.63 10.43 99.74C11.16 90.86 12.82 81.91 15.82 73.23C17.4 68.91 19.27 64.66 21.56 60.58C23.9 56.53 26.65 52.66 29.83 49.14C33.02 45.62 36.62 42.42 40.63 39.75C42.63 38.41 44.74 37.21 46.94 36.14C48.05 35.61 49.17 35.11 50.35 34.66C50.93 34.43 51.54 34.22 52.16 34.01C52.46 33.91 52.8 33.81 53.13 33.71L53.66 33.56L54.34 33.39L53.17 33.76C53.58 33.59 53.71 33.55 53.96 33.46L54.59 33.25C55.01 33.11 55.39 33.01 55.79 32.89C56.57 32.68 57.35 32.48 58.12 32.32C59.66 31.99 61.21 31.78 62.76 31.64C65.86 31.38 69 31.49 72.09 31.97C78.28 32.94 84.17 35.52 89.1 39.06C94.02 42.65 98.03 47.08 101.3 51.78L102.52 53.55C102.92 54.14 103.26 54.76 103.63 55.36C104.34 56.58 105.13 57.77 105.74 59.03C106.38 60.27 107.04 61.51 107.65 62.76L109.34 66.55C111.46 71.63 113.25 76.79 114.64 81.99L115.7 85.89L116.6 89.81C117.24 92.42 117.7 95.04 118.19 97.66C120.07 108.22 121.2 118.43 122.48 128.74C124.96 149.31 127.18 169.86 129.6 190.36C132.02 210.85 134.52 231.32 137.77 251.57C139.41 261.68 141.25 271.76 143.61 281.58C144.81 286.48 146.13 291.33 147.77 295.93C148.58 298.23 149.49 300.46 150.51 302.5C151.52 304.52 152.7 306.45 153.84 307.58C154.4 308.2 154.92 308.5 155.17 308.59C155.44 308.68 155.42 308.68 155.71 308.65C156.01 308.57 156.6 308.25 157.23 307.78C158 307.13 159.27 306.14 160.03 305.43L161.3 304.29L162.54 303.06C162.97 302.66 163.35 302.23 163.73 301.81C164.11 301.38 164.53 300.98 164.86 300.53C166.35 298.81 167.56 296.95 168.62 295.01C169.68 293.07 170.53 291 171.18 288.79C171.85 286.6 172.37 284.3 172.75 281.91C173.54 277.15 173.9 272.14 174.13 267.07C174.57 256.92 174.63 246.56 174.87 236.21C175.09 225.85 175.41 215.47 175.89 205.1C176.35 194.71 177.12 184.38 177.53 174.03C178 163.68 178.22 153.28 178.68 142.87L179.06 135.05L179.6 127.23C179.99 122.01 180.53 116.8 181.22 111.59C181.89 106.38 182.77 101.18 183.77 95.98C184.77 90.78 185.9 85.59 187.22 80.4C188.55 75.22 190.04 70.04 191.86 64.9C193.67 59.76 195.78 54.64 198.44 49.65C199.78 47.16 201.25 44.7 202.89 42.29C204.56 39.9 206.4 37.56 208.49 35.36C210.58 33.16 212.92 31.1 215.53 29.3C218.14 27.51 221.04 26.01 224.1 24.93C230.24 22.73 236.85 22.42 242.86 23.33C248.88 24.33 254.33 26.05 259.81 28.94C265.24 31.93 269.91 35.94 273.64 40.52C277.43 45.07 280.29 50.1 282.61 55.23C284.94 60.36 286.65 65.63 288.01 70.92C289.37 76.21 290.36 81.53 291.08 86.85C292.51 97.49 292.94 108.12 292.78 118.68C292.43 139.8 289.71 160.65 285.64 181.18C281.48 201.69 275.9 221.91 267.98 241.41C265.99 246.28 263.81 251.09 261.4 255.81L259.59 259.31L257.79 262.74C256.61 265.03 255.32 267.32 254.12 269.62C249.21 278.79 244.24 287.88 239.16 296.9C234.11 305.93 228.85 314.81 223.74 323.71C221.11 328.13 218.78 332.66 216.13 337.04C213.51 341.44 210.82 345.75 207.55 350.03L206.78 349.76C206.94 347.06 207.35 344.39 208.02 341.83C208.62 339.23 209.51 336.75 210.42 334.27C211.4 331.84 212.42 329.41 213.61 327.09C214.75 324.74 215.92 322.41 217.11 320.09C221.89 310.84 227.01 301.84 232.18 292.92C237.33 283.98 242.5 275.06 247.33 266C248.54 263.74 249.73 261.49 250.9 259.18L252.66 255.73L253.54 254C253.82 253.47 254.09 252.87 254.36 252.31C256.54 247.77 258.51 243.11 260.32 238.37C267.51 219.37 272.51 199.45 276.07 179.37C277.85 169.32 279.19 159.2 280.08 149.06C280.98 138.92 281.43 128.76 281.29 118.65C281.15 108.55 280.44 98.48 278.82 88.67C277.19 78.9 274.71 69.28 270.6 60.79C266.56 52.31 260.69 45.08 253.26 41.27C249.57 39.39 245.01 38.05 240.82 37.47C236.61 36.97 232.61 37.27 229.01 38.62C221.78 41.23 215.96 48.31 211.73 56.63C207.44 64.98 204.45 74.46 202.07 84.11C199.66 93.79 198.03 103.77 196.43 113.79L194.06 128.89L191.77 144.08C190.3 154.24 188.96 164.46 188.03 174.72C187.07 184.99 186.52 195.29 186.03 205.55C185.55 215.82 185.24 226.1 185.02 236.4C184.79 246.71 184.73 257.02 184.28 267.52C184.03 272.77 183.71 278.09 182.83 283.54C182.41 286.26 181.82 289.02 180.99 291.77C180.18 294.52 179.09 297.27 177.69 299.87C176.29 302.46 174.66 304.96 172.78 307.16C172.33 307.74 171.83 308.25 171.36 308.79C170.88 309.32 170.4 309.86 169.89 310.35L168.38 311.85L166.77 313.3C165.63 314.34 164.85 314.93 163.64 315.94C162.21 317.02 160.58 318.09 158.37 318.71C156.16 319.34 153.44 319.19 151.32 318.32C149.16 317.47 147.55 316.19 146.34 314.93C143.85 312.38 142.39 309.77 141.07 307.2C139.77 304.63 138.74 302.06 137.8 299.5C135.93 294.38 134.49 289.26 133.19 284.13C130.63 273.88 128.67 263.62 126.91 253.35C123.42 232.82 120.72 212.26 118.11 191.73C115.52 171.2 113.06 150.68 110.36 130.24C108.98 120.05 107.7 109.72 105.84 99.95C105.35 97.5 104.89 95.03 104.27 92.63L103.4 89L102.39 85.43C101.06 80.66 99.39 76.06 97.49 71.63C95.59 67.19 93.27 63.04 90.62 59.29C87.96 55.55 84.86 52.29 81.4 49.81C77.92 47.38 74.07 45.76 70.03 45.15C68.01 44.86 65.95 44.8 63.91 44.99C62.89 45.09 61.87 45.23 60.89 45.46C60.4 45.56 59.92 45.69 59.46 45.82C59.24 45.89 58.99 45.95 58.8 46.03L58.51 46.13C58.51 46.13 58.28 46.22 58.4 46.17L57.23 46.54C57.3 46.52 57.22 46.54 57.14 46.57L56.91 46.64C56.73 46.7 56.56 46.74 56.37 46.82C55.99 46.95 55.6 47.09 55.2 47.25C54.41 47.56 53.61 47.92 52.81 48.31C51.22 49.1 49.66 50 48.16 51.02C45.15 53.05 42.41 55.52 39.96 58.28C37.51 61.04 35.36 64.11 33.5 67.38C31.68 70.69 30.17 74.2 28.87 77.81C26.41 85.12 25 92.92 24.41 100.86C23.82 108.81 24.03 116.91 24.76 125C24.98 127.01 25.09 129.07 25.39 131.05L26.19 137.02C26.5 139.06 26.9 141.17 27.24 143.24L27.76 146.23L28.38 149.26C29.94 157.36 31.98 165.35 34.22 173.28C36.43 181.22 39.12 189.02 41.96 196.77C44.83 204.51 48.01 212.15 51.37 219.74C54.75 227.33 58.39 234.83 62.06 242.39C65.74 249.94 69.48 257.54 73 265.36C76.5 273.18 79.92 281.15 82.49 289.58C83.84 293.76 84.87 298.09 85.72 302.45L86.24 305.76L86.5 307.41L86.67 309.08L86.99 312.42L87.1 315.79C87.11 316.35 87.14 316.91 87.14 317.47L87.1 319.15C87.06 320.28 87.06 321.39 86.99 322.52L86.66 325.97C86.6 326.54 86.55 327.14 86.48 327.67L86.22 329.23L85.67 332.5L85.07 335.6L83.87 341.81L79.13 366.72C77.51 375.05 75.93 383.43 73.3 391.9C72.02 396.13 70.28 400.38 68.05 404.38C65.83 408.39 63.12 412.09 60.26 415.48L60.59 415.05C60.42 415.33 60.13 415.8 59.89 416.21C59.64 416.63 59.4 417.07 59.16 417.51C58.68 418.39 58.23 419.3 57.79 420.21C56.92 422.05 56.12 423.93 55.4 425.84C53.98 429.67 52.88 433.61 52.15 437.59C50.67 445.57 50.8 453.72 52.53 461.49C52.78 462.45 52.94 463.44 53.25 464.39L54.11 467.25C54.81 469.12 55.47 471 56.34 472.8L56.95 474.17C57.17 474.62 57.42 475.06 57.65 475.5C58.13 476.38 58.57 477.28 59.07 478.15C60.13 479.86 61.11 481.62 62.33 483.24C62.93 484.06 63.45 484.92 64.1 485.71L66 488.09C66.62 488.91 67.3 489.61 67.96 490.35L69.95 492.56L72.28 494.86L73.44 496.01L73.73 496.3L73.8 496.37C73.8 496.37 73.94 496.51 73.72 496.29L73.76 496.32L73.9 496.45L74.48 496.96C76.02 498.3 77.49 499.74 79.13 500.94L81.53 502.82L84.03 504.52L85.28 505.38C85.7 505.65 86.14 505.89 86.57 506.15L89.16 507.67C92.7 509.51 96.35 511.08 100.12 512.21C103.89 513.31 107.73 514.09 111.66 514.52C115.58 514.94 119.59 514.91 123.6 514.37C127.6 513.83 131.59 512.78 135.38 511.15C139.18 509.54 142.77 507.38 146.04 504.79C149.3 502.19 152.27 499.14 154.51 495.59L155.34 494.25C155.59 493.79 155.81 493.32 156.05 492.85C156.57 491.93 156.87 490.92 157.27 489.95C157.89 487.92 158.27 485.94 158.19 483.69L159 483.65L159.01 483.69Z" fill="black"/>
<path id="Vector_2" d="M140.27 442.85C140.27 442.85 142.04 442.53 145.35 441.94C148.66 441.3 153.5 440.37 159.67 439.17C165.83 437.94 173.3 436.37 181.82 434.42C190.34 432.45 199.94 430.23 210.31 427.45C220.68 424.67 231.85 421.43 243.41 417.4C254.94 413.39 267.03 408.72 278.35 402.25C283.97 399.04 289.44 395.29 293.59 390.74C295.63 388.47 297.32 386 298.15 383.46C298.96 380.92 299.09 378.4 298.3 375.84L297.97 374.88L297.89 374.64L297.85 374.52C297.89 374.6 297.79 374.37 297.85 374.52L297.59 373.91L297.07 372.69C296.9 372.27 296.74 372.02 296.57 371.67C296.4 371.35 296.26 371.03 296.08 370.69L295.5 369.68C295.14 368.99 294.67 368.38 294.27 367.73C292.52 365.2 290.38 362.97 287.97 361C283.08 357.13 277.01 354.51 270.51 352.89C264.01 351.26 257.13 350.58 250.22 350.38C243.3 350.2 236.33 350.52 229.43 351.22C222.52 351.89 215.67 352.95 208.93 354.13C202.19 355.38 195.56 356.81 189.04 358.31C176.02 361.39 163.52 364.87 151.52 368.03C148.6 368.87 145.73 369.69 142.89 370.5L141.82 370.81L140.82 371.17C140.15 371.41 139.49 371.64 138.83 371.88C137.51 372.35 136.19 372.81 134.89 373.27C129.68 375.27 124.59 377.36 119.87 379.66C110.39 384.2 102.06 389.14 94.6499 393.46C87.2699 397.88 80.8299 401.72 75.5199 404.89C70.1799 408.04 65.5999 410.04 62.2799 411.2C58.9699 412.37 56.9499 412.74 56.9499 412.74L56.4299 412.12C56.4299 412.12 57.1699 410.18 59.1699 407.21C61.1799 404.26 64.4599 400.25 69.4299 396.21C74.4299 392.21 80.6999 387.58 88.3399 382.94C95.9799 378.31 105.01 373.72 115.13 369.3C120.19 367.06 125.53 364.95 131.22 362.94C132.67 362.47 134.13 361.99 135.61 361.51C136.35 361.27 137.09 361.03 137.83 360.79L138.95 360.43L140.04 360.14C141.49 359.76 142.95 359.37 144.42 358.98C145.16 358.79 145.89 358.59 146.64 358.4L147.75 358.11L148.19 358L148.47 357.94L149.03 357.81C161.02 355.11 173.76 352.1 187.06 349.37C193.7 347.97 200.49 346.65 207.41 345.49C214.32 344.28 221.37 343.27 228.53 342.46C235.69 341.69 242.98 341.16 250.38 341.2C257.77 341.24 265.3 341.83 272.78 343.59C276.52 344.47 280.24 345.64 283.85 347.22C287.46 348.82 290.92 350.89 294.09 353.41C300.43 358.48 305.11 365.57 307.37 373.41C308.55 377.67 308.21 382.5 306.68 386.56C305.15 390.65 302.64 393.94 299.98 396.73C297.29 399.52 294.37 401.83 291.39 403.9C288.41 405.97 285.34 407.75 282.26 409.39C269.89 415.84 257.37 420.11 245.44 423.75C233.48 427.29 222.05 430.03 211.47 432.33C200.88 434.6 191.15 436.48 182.48 437.9C173.82 439.34 166.25 440.45 160.01 441.31C153.77 442.18 148.86 442.76 145.5 443.13C142.14 443.49 140.35 443.68 140.35 443.68L140.24 442.87L140.27 442.85Z" fill="black"/>
<path id="Vector_3" d="M240 284.88C240 284.88 240 284.43 240.09 283.85C240.15 283.15 240.34 282.49 240.68 281.82C241.04 281.18 241.64 280.84 242.31 280.38C242.99 279.93 243.79 279.45 244.72 279.03C246.58 278.17 248.99 277.63 251.73 276.94C254.48 276.27 257.6 275.58 261.06 274.99C267.96 273.85 276.22 273.08 285.21 274.04C287.45 274.31 289.74 274.69 292.03 275.23C294.32 275.8 296.63 276.52 298.9 277.46C301.16 278.42 303.38 279.59 305.47 281L306.24 281.55L306.63 281.83L306.82 281.97L306.92 282.04L307.15 282.22L307.19 282.25L308.46 283.35C308.94 283.81 309.52 284.45 310.02 285.01C310.53 285.59 310.87 286.17 311.3 286.76C312.85 289.16 313.7 291.89 314.08 294.51C314.46 297.14 314.43 299.7 314.19 302.14C313.64 307.01 312.48 311.52 311.03 315.7C309.59 319.88 307.94 323.77 306.14 327.32C304.35 330.87 302.48 334.09 300.64 336.99C296.99 342.8 293.28 347.16 290.47 350.05C287.66 352.95 285.74 354.4 285.74 354.4L285.05 353.97C285.05 353.97 285.5 351.6 286.85 347.81C288.18 344.01 290.41 338.81 293.47 332.9C294.98 329.96 296.61 326.77 298.33 323.39C300.01 320.03 301.79 316.5 303.35 312.8C304.91 309.1 306.29 305.21 306.86 301.28C307.44 297.38 307.03 293.48 305.16 290.76C304.91 290.45 304.68 290.05 304.43 289.8C304.16 289.54 304.01 289.32 303.68 289L302.38 287.93L302.34 287.9C302.69 288.17 302.41 287.96 302.48 288.02L302.4 287.97L302.25 287.87L301.94 287.67L301.33 287.27C299.67 286.24 297.9 285.36 296.04 284.68C294.17 284.02 292.25 283.52 290.3 283.14C288.35 282.79 286.38 282.56 284.42 282.43C280.5 282.21 276.64 282.33 272.98 282.71C269.32 283.1 265.85 283.6 262.66 284.23C259.47 284.84 256.55 285.49 253.98 286.15C251.4 286.78 249.21 287.54 247.29 287.8C246.33 287.94 245.45 287.98 244.67 287.99C243.88 287.98 243.25 288.06 242.61 287.74C241.95 287.4 241.38 286.99 240.92 286.47C240.5 286.06 240.23 285.7 240.23 285.7L239.97 284.93L240 284.88Z" fill="black"/>
<path id="Vector_4" d="M184.06 436.08C184.06 436.08 183.97 436.71 183.79 437.89C183.61 439.05 183.34 440.75 183 442.91C182.66 445.05 182.3 447.64 182.02 450.53C181.89 451.98 181.82 453.51 181.72 455.07C181.65 456.63 181.55 458.25 181.7 459.87C181.83 461.47 182.25 463.08 183.09 464.3C183.9 465.56 185.09 466.33 186.49 466.74C187.48 467.04 188.49 467.33 189.51 467.64C190.56 467.94 191.62 468.25 192.69 468.55C194.82 469.15 196.98 469.8 199.12 470.5C201.26 471.2 203.37 472.02 205.54 472.7C207.7 473.4 209.89 474 212.09 474.49C216.48 475.49 220.94 476.02 225.16 475.65C227.25 475.4 229.33 475.09 231.27 474.42L232.73 473.92C233.22 473.77 233.66 473.48 234.13 473.28L235.53 472.64L235.57 472.62C235.64 472.58 235.13 472.91 235.37 472.75L235.47 472.69L235.67 472.57L236.06 472.32L236.24 472.2L236.29 472.15C236.29 472.15 236.36 472.09 236.4 472.06C236.44 472.03 236.48 472.02 236.53 471.97L236.75 471.76C236.9 471.61 237.06 471.5 237.21 471.32C237.52 470.98 237.83 470.65 238.13 470.25C238.75 469.49 239.33 468.6 239.9 467.7C241.03 465.87 242.04 463.86 242.98 461.84C244.88 457.79 246.48 453.64 247.92 449.66C249.34 445.67 250.64 441.86 251.81 438.32C253.03 434.79 254.11 431.54 255.14 428.66C256.14 425.78 257.08 423.28 257.86 421.22C258.64 419.16 259.29 417.56 259.74 416.46C260.2 415.37 260.45 414.79 260.45 414.79L261.24 414.99C261.24 414.99 261.18 415.62 261.07 416.8C260.95 417.98 260.76 419.7 260.48 421.88C260.2 424.06 259.84 426.71 259.35 429.73C258.88 432.76 258.26 436.15 257.53 439.86C256.76 443.55 255.87 447.55 254.78 451.77C253.68 455.99 252.44 460.44 250.79 465.06C249.95 467.37 248.99 469.7 247.78 472.08C247.15 473.27 246.51 474.47 245.68 475.68C245.3 476.28 244.83 476.89 244.35 477.5C244.12 477.8 243.82 478.11 243.56 478.41L243.15 478.86C242.99 479.02 242.78 479.21 242.59 479.38L242.01 479.89L241.71 480.14L241.52 480.29L241.15 480.57L240.97 480.71L240.88 480.78C241.09 480.65 240.55 481 240.58 480.97L240.52 481L238.64 482.08C238 482.41 237.39 482.82 236.71 483.09L234.69 483.92C233.35 484.53 231.93 484.83 230.53 485.25C229.83 485.48 229.12 485.58 228.41 485.7L226.27 486.05C220.54 486.79 214.95 486.16 209.75 485.07C207.15 484.51 204.63 483.8 202.21 483.02C199.78 482.24 197.42 481.42 195.21 480.41C192.99 479.41 190.91 478.25 188.92 477.04C187.93 476.43 186.94 475.82 186 475.21C185.03 474.58 184.07 473.96 183.12 473.34C181.9 472.6 180.8 471.63 179.89 470.57C178.96 469.53 178.23 468.36 177.7 467.2C177.13 466.05 176.77 464.88 176.47 463.76C176.18 462.63 175.98 461.55 175.83 460.49C175.28 456.25 175.89 452.56 176.83 449.51C177.71 446.43 178.82 443.91 179.78 441.88C180.77 439.86 181.64 438.33 182.28 437.31C182.59 436.79 182.85 436.41 183.02 436.16C183.19 435.9 183.28 435.77 183.28 435.77L184.04 436.06L184.06 436.08Z" fill="black"/>
<path id="Vector_5" d="M308.23 313.4C308.23 313.4 308.28 313.35 308.39 313.24C308.5 313.13 308.65 312.97 308.89 312.78C309.38 312.37 310.1 311.8 311.16 311.21C313.25 309.97 316.73 308.74 321.22 308.36C322.34 308.24 323.52 308.22 324.75 308.21C325.93 308.25 327.17 308.29 328.45 308.33C329.71 308.41 331.17 308.6 332.62 308.78C334.06 309.01 335.5 309.28 337.02 309.59C340.01 310.34 343.2 311.22 346.42 312.71C347.22 313.09 348.04 313.43 348.83 313.89C349.62 314.35 350.42 314.81 351.23 315.28C352.79 316.36 354.39 317.43 355.85 318.82C358.82 321.5 361.56 324.82 363.63 328.79C365.68 332.76 367 337.34 366.94 342.2C366.94 342.65 366.86 343.32 366.8 343.94C366.73 344.54 366.67 345.26 366.57 345.76C366.4 346.83 366.25 347.94 366.02 348.98C365.65 351.11 365.22 353.22 364.79 355.34C363.93 359.59 362.89 363.85 361.52 368.08C358.75 376.52 355.61 385.09 352.21 393.72C348.84 402.36 345.18 411.03 341.37 419.64C337.56 428.25 333.58 436.79 329.43 445.11C325.22 453.43 320.98 461.5 315.74 469.11C315.1 470.06 314.35 471 313.59 471.94C312.88 472.83 312.19 473.62 311.49 474.45C310.07 476.11 308.81 477.7 307.5 479.34C304.87 482.61 302.45 485.95 299.36 489.16L298.18 490.34L296.86 491.46L296.2 492.01L295.47 492.51C294.98 492.85 294.5 493.19 294 493.5C293.48 493.79 292.96 494.07 292.44 494.35L291.66 494.77L290.86 495.11C290.32 495.34 289.79 495.56 289.25 495.79C288.72 495.96 288.19 496.14 287.66 496.31C283.4 497.62 279.43 498.2 275.71 498.36C274.79 498.36 273.89 498.36 272.99 498.34C272.54 498.34 272.1 498.31 271.65 498.29L270.9 498.23C270.69 498.21 270.48 498.19 270.27 498.17C269.42 498.07 268.64 497.99 267.77 497.84C266.87 497.68 265.98 497.52 265.1 497.36C261.65 496.64 258.39 495.66 255.38 494.23C252.38 492.78 249.68 490.76 247.73 488.42C246.71 487.29 246.01 485.98 245.33 484.8C244.82 483.53 244.27 482.36 244.05 481.19C243.92 480.61 243.77 480.05 243.68 479.51C243.62 478.96 243.56 478.44 243.52 477.93C243.39 476.91 243.44 475.98 243.47 475.12C243.48 474.69 243.5 474.28 243.51 473.88C243.55 473.49 243.61 473.12 243.66 472.76C243.77 472.06 243.86 471.42 243.95 470.85C244.47 468.6 244.83 467.46 244.83 467.46L245.64 467.52C245.64 467.52 245.88 468.71 246.26 470.85C246.39 471.37 246.53 471.96 246.69 472.6C246.77 472.92 246.85 473.25 246.93 473.59C247.04 473.92 247.15 474.27 247.27 474.63C247.5 475.34 247.73 476.11 248.11 476.85C248.29 477.23 248.45 477.61 248.62 478.01C248.82 478.39 249.06 478.75 249.28 479.13C249.67 479.92 250.31 480.58 250.84 481.31C251.51 481.94 252.12 482.63 252.94 483.16C254.49 484.28 256.4 485.17 258.7 485.82C261.02 486.44 263.7 486.83 266.57 487.07C267.28 487.12 267.99 487.16 268.72 487.21C269.53 487.24 270.35 487.28 271.18 487.32C271.96 487.37 272.75 487.42 273.55 487.46C274.37 487.51 275.2 487.59 276.03 487.69C279.31 487.97 282.72 488.58 285.88 488.32C286.27 488.29 286.68 488.26 287.06 488.21L288.17 487.94L288.73 487.8C288.91 487.74 289.08 487.66 289.25 487.58L290.3 487.13L291.29 486.5L291.79 486.18L292.26 485.78L293.22 484.98L294.16 484.04C296.68 481.47 299.16 478.13 301.82 474.83C303.16 473.18 304.54 471.42 305.91 469.79C306.58 468.96 307.32 468.12 307.95 467.3C308.55 466.54 309.16 465.77 309.74 464.89C312.09 461.5 314.27 457.69 316.35 453.78C318.44 449.87 320.42 445.8 322.38 441.69C326.28 433.44 330.01 424.92 333.55 416.31C337.09 407.71 340.49 399.04 343.72 390.48C346.93 381.91 350.01 373.44 352.72 365.21C354.09 361.1 355.64 357.13 357 353.23C357.68 351.28 358.3 349.34 358.8 347.44C359.06 346.47 359.22 345.56 359.42 344.63C359.48 344.39 359.51 344.17 359.52 343.99L359.59 343.42C359.64 343.04 359.71 342.71 359.69 342.15V341.4V341.21V341.12C359.69 341.03 359.7 341.52 359.69 341.28L359.64 340.98L359.44 339.79C359.39 339.39 359.31 339 359.15 338.63L358.76 337.5C358.69 337.32 358.64 337.13 358.55 336.95L358.26 336.42L357.69 335.38C357.33 334.69 356.75 334.09 356.31 333.47C354.29 331.05 351.69 329.21 349.11 327.63C347.85 326.81 346.48 326.12 345.22 325.37C343.88 324.71 342.64 323.97 341.33 323.36C340.07 322.67 338.78 322.1 337.54 321.49C336.29 320.91 335.03 320.41 333.83 319.86C332.59 319.42 331.4 318.88 330.25 318.47C329.09 318.08 328.07 317.63 326.9 317.27C326.31 317.08 325.73 316.89 325.16 316.71C324.88 316.62 324.59 316.53 324.32 316.44L323.91 316.31L323.81 316.28L323.76 316.26C323.65 316.24 323.85 316.26 323.81 316.26L323.62 316.2C322.61 315.87 321.64 315.6 320.72 315.35C317.03 314.33 314.04 313.98 311.92 313.94C310.87 313.94 310.02 313.99 309.48 314.04C308.89 314.11 308.59 314.15 308.59 314.15L308.23 313.42V313.4Z" fill="black"/>
<path id="Vector_6" d="M348.12 386.87C348.12 386.87 348.1 387.85 348.07 389.69C348.03 391.53 347.96 394.25 347.81 397.69C347.66 401.14 347.37 405.31 346.95 410.11C346.54 414.9 345.91 420.3 345.02 426.17C344.13 432.04 342.99 438.39 341.38 445.03C339.78 451.67 337.8 458.64 335.17 465.7C332.49 472.73 329.19 479.87 324.94 486.71C320.74 493.57 315.33 500.01 308.83 505.38C308 506.03 307.14 506.65 306.3 507.28L305.03 508.23C304.6 508.53 304.14 508.8 303.69 509.09L300.99 510.78C300.06 511.3 299.11 511.76 298.16 512.26L296.74 512.99C296.27 513.23 295.76 513.41 295.28 513.62L292.33 514.82L291.96 514.97L291.53 515.12L290.84 515.35L289.46 515.82C288.54 516.13 287.62 516.44 286.71 516.75L285.34 517.21L283.9 517.64C282.93 517.92 281.97 518.2 281.01 518.48C279.09 519.07 277.17 519.53 275.27 519.98C274.32 520.21 273.37 520.44 272.43 520.67C271.47 520.86 270.52 521.05 269.57 521.24C267.67 521.62 265.78 522 263.88 522.26C256.32 523.46 248.86 523.95 241.74 523.71C240.85 523.68 239.97 523.64 239.09 523.61C238.21 523.57 237.34 523.47 236.48 523.4C235.62 523.32 234.76 523.22 233.92 523.1C233.08 522.94 232.24 522.77 231.42 522.57C230.6 522.37 229.79 522.18 229 521.92C228.21 521.66 227.43 521.37 226.66 521.09C225.12 520.57 223.66 519.86 222.23 519.24C219.38 517.94 216.73 516.62 214.2 515.45C212.96 514.8 211.74 514.17 210.56 513.55C210.01 513.23 209.46 512.92 208.93 512.61C208.38 512.27 207.83 511.94 207.3 511.61C203.12 508.94 199.75 506.3 197.18 503.9C194.61 501.5 192.79 499.45 191.63 497.99C190.47 496.53 189.91 495.7 189.91 495.7L190.56 495.2C190.56 495.2 190.72 495.38 191.03 495.74C191.34 496.09 191.81 496.61 192.46 497.25C193.76 498.51 195.72 500.34 198.53 502.24C201.31 504.16 204.87 506.23 209.19 507.97C209.72 508.18 210.26 508.39 210.82 508.61C211.4 508.82 211.99 509.04 212.59 509.26C213.76 509.63 214.95 510.01 216.18 510.4C217.44 510.73 218.72 511.07 220.07 511.31C221.44 511.48 222.79 511.76 224.23 511.81C225.66 511.9 227.09 512.01 228.57 512.03C230.04 512.07 231.52 512.15 233.02 512.2C233.77 512.24 234.52 512.31 235.27 512.38C236.03 512.42 236.79 512.48 237.56 512.57C238.33 512.64 239.1 512.76 239.88 512.82C240.66 512.87 241.45 512.92 242.25 512.97C248.62 513.36 255.43 513.1 262.44 512.19C264.2 512.01 265.96 511.7 267.73 511.39C268.62 511.24 269.51 511.09 270.4 510.93C271.29 510.74 272.18 510.55 273.08 510.36C274.87 509.98 276.68 509.6 278.44 509.12C279.33 508.89 280.22 508.66 281.11 508.43L282.45 508.09L283.84 507.68C284.77 507.41 285.69 507.13 286.63 506.85L288.03 506.44L288.73 506.23L288.9 506.18L288.99 506.15L289.3 506.04L291.8 505.13C292.21 504.97 292.64 504.85 293.05 504.66L294.26 504.09C295.07 503.71 295.89 503.35 296.69 502.95L299.03 501.61C299.42 501.38 299.82 501.17 300.2 500.93L301.32 500.16C302.06 499.64 302.82 499.14 303.56 498.61L305.69 496.89C306.04 496.6 306.41 496.33 306.75 496.03L307.76 495.09L309.78 493.21L311.68 491.2L312.63 490.2L313.53 489.14L315.32 487.02C315.9 486.3 316.44 485.54 317 484.8C317.55 484.06 318.13 483.33 318.63 482.55C322.84 476.45 326.31 469.87 329.19 463.28C332.09 456.69 334.43 450.06 336.36 443.69C338.28 437.31 339.85 431.17 341.13 425.47C343.67 414.05 345.13 404.35 346.06 397.56C346.53 394.16 346.84 391.49 347.05 389.66C347.25 387.83 347.36 386.85 347.36 386.85L348.17 386.9L348.12 386.87Z" fill="black"/>
<path id="Vector_7" d="M182.77 492.67C182.77 492.67 182.83 492.82 182.95 493.04C183.06 493.26 183.26 493.61 183.5 494.03C183.77 494.45 184.06 494.96 184.47 495.5C184.85 496.05 185.33 496.65 185.87 497.28C186.16 497.58 186.43 497.91 186.72 498.24C187.02 498.57 187.37 498.87 187.71 499.19C187.88 499.36 188.04 499.52 188.21 499.69C188.4 499.84 188.58 500 188.77 500.16C189.15 500.47 189.54 500.8 189.93 501.12C190.35 501.42 190.77 501.72 191.2 502.03L191.84 502.5L192.53 502.92C192.99 503.21 193.45 503.5 193.92 503.79C194.38 504.09 194.9 504.3 195.39 504.56L196.88 505.31C197.39 505.53 197.91 505.74 198.41 505.96C198.92 506.18 199.42 506.39 199.92 506.6C200.43 506.79 200.95 506.94 201.45 507.12C202.46 507.45 203.41 507.86 204.37 508.08C205.32 508.35 206.21 508.61 207.04 508.84C207.86 509.11 208.64 509.27 209.33 509.42C210.02 509.59 210.62 509.74 211.11 509.86C212.1 510.13 212.67 510.28 212.67 510.28L212.6 511.09C212.6 511.09 212.01 511.09 210.97 511.11C210.45 511.11 209.82 511.09 209.1 511.09C208.38 511.06 207.55 511.07 206.67 510.94C205.78 510.83 204.82 510.71 203.8 510.58C202.78 510.46 201.73 510.14 200.63 509.91C200.08 509.78 199.52 509.66 198.96 509.49C198.41 509.3 197.85 509.1 197.28 508.91C196.72 508.71 196.15 508.51 195.58 508.31L193.93 507.52C193.38 507.24 192.81 507.02 192.29 506.7C191.76 506.38 191.24 506.07 190.72 505.75C189.66 505.15 188.77 504.31 187.85 503.61C187.44 503.2 187.03 502.79 186.63 502.39C186.22 502 185.86 501.59 185.53 501.16C185.21 500.73 184.87 500.33 184.59 499.92C184.32 499.49 184.05 499.09 183.82 498.68C183.57 498.29 183.41 497.86 183.21 497.48C183.02 497.1 182.85 496.74 182.74 496.37C182.47 495.66 182.3 495.02 182.18 494.49C182.07 493.95 182.01 493.54 182 493.23C181.97 492.93 181.98 492.78 181.98 492.78L182.78 492.62L182.77 492.67Z" fill="black"/>
<path id="Vector_8" d="M282.55 538.97C282.55 538.97 282.54 537.3 282.77 534.17C282.89 532.61 283.08 530.68 283.41 528.42C283.75 526.16 284.2 523.56 285.07 520.67C285.51 519.23 286.04 517.71 286.79 516.15C287.55 514.59 288.5 512.95 290.08 511.45C290.88 510.71 291.86 510.02 293.05 509.58C294.24 509.13 295.6 508.97 296.88 509.12C299.48 509.42 301.58 510.67 303.42 512.01C307.06 514.79 309.94 518.31 312.72 522.1L313.23 522.82L313.49 523.18L313.55 523.27C313.61 523.36 313.51 523.19 313.7 523.5L313.81 523.68C314.12 524.16 314.43 524.65 314.74 525.14C315.05 525.63 315.36 526.12 315.68 526.62C316 527.11 316.29 527.79 316.6 528.38C317.2 529.6 317.85 530.85 318.25 532.15C318.71 533.44 319.2 534.73 319.46 536.14C319.61 536.84 319.77 537.53 319.92 538.24C320.03 538.95 320.07 539.69 320.15 540.42C320.19 541.16 320.33 541.89 320.29 542.64C320.26 543.39 320.23 544.15 320.2 544.9L320.14 546.04L319.94 547.17C319.8 547.93 319.66 548.69 319.52 549.45C319.36 550.21 319.07 550.93 318.85 551.68C318.59 552.41 318.42 553.2 318.06 553.89C315.61 559.69 311.48 564.68 306.66 568.69C301.83 572.71 296.34 575.93 290.55 578.51C284.75 581.1 278.65 583.15 272.37 584.78C266.09 586.38 259.63 587.5 253.08 588.38C249.8 588.76 246.5 589.13 243.18 589.33C239.86 589.63 236.53 589.7 233.17 589.85C226.48 590 219.73 589.92 212.99 589.5C206.24 589.17 199.51 588.48 192.8 587.64C189.45 587.21 186.11 586.68 182.77 586.2C179.49 585.65 176.22 585.1 172.96 584.55C166.49 583.47 159.96 582.18 153.5 580.95C140.62 578.33 127.99 575.57 115.86 572.16C112.82 571.38 109.82 570.44 106.86 569.55C103.89 568.69 100.97 567.69 98.0799 566.72C92.2899 564.82 86.6899 562.6 81.2899 560.26C75.8999 557.81 70.7199 555.18 65.9099 551.86C63.5199 550.15 61.1899 548.39 59.1199 546.15C58.0599 545.12 57.0999 543.82 56.2099 542.64C55.5099 541.61 54.7399 540.48 54.0499 539.41C51.2399 535.05 48.7199 530.52 47.3699 525.41C46.7099 522.87 46.4199 520.09 46.8999 517.33C47.1499 515.95 47.5799 514.61 48.1999 513.38C48.8399 512.17 49.6099 511.05 50.4799 510.13C50.9099 509.66 51.3799 509.25 51.8299 508.84C52.3099 508.48 52.7699 508.08 53.2499 507.78C53.7299 507.47 54.2099 507.14 54.6899 506.89L55.4099 506.5L55.5899 506.4L55.8099 506.29L55.8899 506.25L56.2199 506.11C56.6499 505.92 57.0799 505.74 57.5099 505.56C57.9399 505.38 58.3199 505.19 58.8699 505.03C59.3799 504.87 59.8799 504.71 60.3799 504.54L61.1199 504.31C61.3699 504.25 61.6099 504.21 61.8599 504.16C65.7399 503.33 69.6699 503.84 72.6099 505.32C75.5599 506.82 77.5499 508.91 78.9699 510.81C80.3499 512.75 81.2699 514.51 81.9199 515.96C82.5699 517.42 82.9799 518.55 83.2199 519.33C83.4699 520.1 83.5999 520.5 83.5999 520.5L82.8399 520.8C82.8399 520.8 82.6499 520.44 82.2699 519.74C81.9099 519.04 81.2999 518.02 80.4799 516.75C79.6499 515.48 78.5199 513.99 77.0299 512.48C75.4999 511.02 73.5799 509.51 71.1899 508.71C68.7999 507.93 66.0199 507.96 63.1699 508.99L62.6299 509.16L62.1299 509.39C61.7999 509.54 61.4599 509.69 61.1199 509.85C60.7999 509.96 60.3799 510.23 59.9799 510.46C59.5799 510.69 59.1799 510.93 58.7699 511.16L58.4599 511.34L58.3799 511.38C58.6099 511.26 58.4099 511.38 58.4399 511.36L58.3199 511.45L57.8199 511.81C57.4699 512.04 57.1899 512.31 56.8799 512.56C56.2799 513.08 55.7499 513.65 55.3099 514.25C54.8599 514.84 54.5399 515.49 54.2799 516.15C54.0399 516.82 53.9099 517.52 53.8599 518.26C53.7799 519.75 54.0999 521.44 54.7499 523.21C56.0499 526.78 58.5399 530.48 61.4199 534.22C62.1599 535.18 62.8699 536.07 63.6899 537.07C64.4099 537.84 65.0199 538.57 65.8899 539.27C67.4599 540.7 69.4299 542.01 71.4799 543.27C75.6699 545.75 80.5499 547.8 85.6199 549.78C95.8899 553.57 107.26 556.69 119.13 559.54C131 562.41 143.47 564.87 156.13 567.27C162.47 568.43 168.81 569.64 175.35 570.69C178.58 571.25 181.81 571.81 185.05 572.38C188.25 572.85 191.44 573.39 194.64 573.81C207.45 575.52 220.34 576.53 232.99 576.52C245.62 576.46 258.03 575.45 269.63 573.02C275.41 571.77 281 570.21 286.2 568.18C291.39 566.14 296.24 563.7 300.33 560.66C304.41 557.63 307.73 554.07 309.74 550.12C310.05 549.65 310.17 549.11 310.4 548.61C310.59 548.1 310.84 547.61 310.99 547.09C311.12 546.57 311.25 546.05 311.39 545.53L311.6 544.76L311.69 543.97C311.76 543.44 311.82 542.92 311.89 542.39C311.97 541.87 311.89 541.33 311.91 540.8C311.9 540.27 311.92 539.74 311.89 539.21C311.81 538.68 311.74 538.16 311.67 537.63C311.59 536.57 311.27 535.54 310.99 534.52C310.77 533.45 310.34 532.55 310 531.6C309.8 531.11 309.7 530.68 309.43 530.15C309.16 529.63 308.9 529.11 308.64 528.59C308.38 528.07 308.12 527.56 307.86 527.05L307.76 526.86C307.91 527.11 307.77 526.88 307.79 526.91L307.74 526.82L307.53 526.46L307.12 525.75C304.92 522.03 302.56 518.62 299.97 516.25C298.69 515.09 297.33 514.23 296.18 513.98C295.04 513.7 294 513.93 292.91 514.72C291.84 515.5 290.9 516.69 290.12 517.92C289.33 519.16 288.7 520.47 288.14 521.74C285.98 526.9 284.94 531.36 284.28 534.35C283.62 537.36 283.37 538.99 283.37 538.99L282.56 538.92L282.55 538.97Z" fill="black"/>
</g>
</g>
<path id="yellow-five" d="M141.17 360.59C132.34 360.81 122.97 364.53 114.66 367.31C105.64 370.33 96.75 373.71 87.99 377.41C71.03 384.58 54.05 392.63 38.88 403.13C25.52 412.37 13.43 424.81 8.36999 440.59C3.69999 455.17 5.11999 473.08 17.83 483.17C33.54 495.65 55.69 492.64 73.35 486.54C75.31 485.86 75.17 482.41 72.83 482.67C57.2 484.4 40.37 488.78 26.03 479.78C11.69 470.78 12.1 453.52 17.56 439.81C29.37 410.18 62.66 395.23 90.18 383.69C98.81 380.07 107.59 376.8 116.48 373.86C124.93 371.07 134.54 369.35 142.46 365.29C144.71 364.14 143.63 360.51 141.18 360.57L141.17 360.59Z" fill="#FFD00D"/>
<path id="yellow-six" d="M176.36 592.54C190.47 598.82 207.18 601.05 222.5 601.78C238.55 602.55 254.84 600.68 270.38 596.61C296.93 589.65 324.72 572.44 327.27 542.43C328.38 529.35 322.19 513.09 309.4 507.76C306.44 506.52 305.09 510.63 306.62 512.54C311.33 518.44 315.24 524.03 316.68 531.64C317.96 538.44 317.11 545.62 314.55 552.03C308.75 566.56 295.47 576.69 281.49 582.7C265.83 589.43 248.54 592.44 231.6 593.2C223.13 593.58 214.64 593.37 206.21 592.45C196.81 591.43 187.88 588.94 178.65 587.14C175.61 586.55 173.11 591.09 176.37 592.54H176.36Z" fill="#FFD00D"/>
<path id="yellow-two" d="M183.26 51.1C185.93 45.57 187.94 39.88 191.4 34.74C194.86 29.6 199.12 25.28 204 21.76C214.66 14.06 228.2 10.89 241.21 12.84C254.22 14.79 260.37 22.36 263.44 34.23C265.76 43.22 267.35 58.8 277.22 63.05C280.22 64.34 283.45 62.23 282.73 58.82C282.1 55.87 280.56 53.05 279.59 50.18C278.54 47.08 277.89 43.92 277.26 40.72C276 34.31 274.94 27.78 272.48 21.7C266.77 7.60001 253.53 1.12001 238.92 0.120012C224.05 -0.899988 208.52 4.64001 196.97 13.9C186.72 22.11 177.09 35.77 176.45 49.26C176.28 52.78 181.68 54.38 183.26 51.11V51.1Z" fill="#FFD00D"/>
<path id="yellow-three" d="M344.79 310.1C350.93 310.93 356.3 311.46 361.55 315.11C366.8 318.76 370.79 323.5 373.09 329.23C378.53 342.72 374.51 358.53 368.11 370.92C355.11 396.1 331.13 415.78 326.58 444.96C325.8 449.96 332.97 452.24 334.35 447.1C343.07 414.65 373.2 393.94 383.34 362.16C387.93 347.78 388.05 330.84 379.21 317.98C372.26 307.86 357.66 297.76 344.78 302.51C341.6 303.68 340.52 309.53 344.78 310.1H344.79Z" fill="#FFD00D"/>
<path id="grey-four" d="M128.39 534.75C142.65 550.79 168.46 554.28 188.86 554.33C200.84 554.36 212.85 552.77 224.63 550.68C230.86 549.57 237.05 548.28 243.19 546.76C248.77 545.37 255.35 544.07 260.16 540.81C263.1 538.82 261.74 534.94 258.46 534.52C253.32 533.87 247.37 535.4 242.31 536.42C236.72 537.55 231.14 538.7 225.53 539.74C213.97 541.89 202.33 543.33 190.56 543.55C180.12 543.74 169.94 542.8 159.72 540.7C149.54 538.61 139.94 534.79 130.03 531.93C128.34 531.44 127.31 533.54 128.39 534.75Z" fill="#B6B1B3"/>
<path id="yellow-four" d="M4.45994 185.89C5.44994 191.21 9.53994 196.24 12.1699 200.93C15.1999 206.33 18.2699 211.7 21.3399 217.08C27.6399 228.1 33.8899 239.16 39.9399 250.32C51.8799 272.35 63.0899 294.73 74.7199 316.92C75.7899 318.95 79.3199 317.55 78.4899 315.33C69.6699 291.67 58.4599 268.72 46.1699 246.68C39.9799 235.58 33.5299 224.67 26.6499 213.98C23.2899 208.75 19.8299 203.62 16.2199 198.56C13.0599 194.14 10.0199 188.2 5.42994 185.15C4.90994 184.81 4.36994 185.37 4.46994 185.89H4.45994Z" fill="#FFD00D"/>
<path id="yellow-seven" d="M257.9 261.54C247.54 277.97 237.76 295.52 231.78 314.07C231.14 316.06 234.3 317.46 235.21 315.51C243.45 297.87 251.16 280.21 261.14 263.43C262.38 261.35 259.19 259.5 257.9 261.54Z" fill="#FFD00D"/>
<path id="yelow-one" d="M7.21997 65.85C17.55 47.46 26.85 21.57 51.69 19.61C77.15 17.6 88.19 44.59 100.77 61.3C103 64.26 108.43 62.72 107.2 58.59C100.08 34.84 79.51 7.08 51.69 9.61C23.87 12.14 7.92997 39.46 0.189973 62.88C-1.18003 67.04 5.09997 69.61 7.21997 65.84V65.85Z" fill="#FFD00D"/>
<path id="grey-one" d="M32.6 95.36C28.93 98.45 30.02 106.53 29.89 110.97C29.71 117.13 29.94 123.21 30.34 129.35C31.16 142.09 32.05 154.76 33.81 167.42C37.34 192.73 43.24 217.82 53.93 241.1C54.44 242.21 56.26 241.42 55.9 240.27C48.4 216.31 41.36 192.17 37.82 167.26C36.04 154.78 34.8 141.98 35.01 129.35C35.12 122.92 35.4 116.48 35.61 110.05C35.75 105.63 37.57 98.88 34.45 95.36C33.95 94.8 33.11 94.93 32.59 95.36H32.6Z" fill="#B6B1B3"/>
<path id="grey-three" d="M138.42 314.9C136.56 318.2 138.46 322.17 140.71 324.88C143.94 328.76 148.84 329.93 153.7 329.86C163.1 329.72 175.28 325.26 179.99 316.53C180.81 315 179.09 313 177.5 314.04C171.25 318.11 166.66 322.85 159.02 324.47C155.25 325.27 150.39 325.72 146.82 323.9C142.87 321.88 142.69 318.24 140.53 314.91C140.05 314.17 138.9 314.08 138.43 314.91L138.42 314.9Z" fill="#B6B1B3"/>
<path id="grey-two" d="M262.84 77.57C263.02 85.86 264.33 94.17 264.69 102.48C265.05 110.79 265.1 119.15 264.85 127.49C264.35 143.78 263.05 160.03 260.41 176.12C257.8 192.02 253.64 207.55 249.96 223.22C246.13 239.56 240.32 254.85 234.09 270.38C233.77 271.18 235.05 271.68 235.46 270.96C252.27 241.8 263.66 209.82 269.09 176.67C271.75 160.43 273.45 143.96 273.59 127.49C273.66 119.15 273.43 110.81 272.88 102.48C272.33 94.15 271.98 84.92 270.02 76.6C269.07 72.59 262.75 73.45 262.84 77.57Z" fill="#B6B1B3"/>
</g>
</g>
</svg>
